<svg xmlns="http://www.w3.org/2000/svg" viewBox="0 0 800 1000"><rect width="800" height="1000" fill="#fdf0e6"/><circle cx="400" cy="430" r="300" fill="#fbdccb"/><rect x="230" y="520" width="340" height="200" rx="26" fill="#f6b5c8"/><rect x="230" y="520" width="340" height="60" rx="26" fill="#fff6f0"/><rect x="270" y="400" width="260" height="130" rx="22" fill="#fff6f0"/><path d="M270 450 q30 25 65 0 t65 0 t65 0 t65 0" fill="none" stroke="#f6b5c8" stroke-width="10"/><rect x="330" y="320" width="14" height="80" rx="6" fill="#ffd36e"/><rect x="393" y="310" width="14" height="90" rx="6" fill="#9bc7f2"/><rect x="456" y="320" width="14" height="80" rx="6" fill="#ffd36e"/><g fill="#ff9a4d"><ellipse cx="337" cy="305" rx="9" ry="16"/><ellipse cx="400" cy="294" rx="9" ry="16"/><ellipse cx="463" cy="305" rx="9" ry="16"/></g><rect x="180" y="720" width="440" height="22" rx="11" fill="#e6c3b1"/></svg>
