<svg xmlns="http://www.w3.org/2000/svg" viewBox="0 0 800 1000"><rect width="800" height="1000" fill="#fbe7ee"/><rect y="560" width="800" height="440" fill="#a6cf8f"/><circle cx="120" cy="620" r="26" fill="#f07ca0"/><circle cx="260" cy="680" r="30" fill="#ffd36e"/><circle cx="420" cy="640" r="24" fill="#f6a6c1"/><circle cx="560" cy="700" r="32" fill="#e85d84"/><circle cx="700" cy="630" r="26" fill="#ffd36e"/><circle cx="180" cy="800" r="34" fill="#e85d84"/><circle cx="360" cy="860" r="30" fill="#f6a6c1"/><circle cx="520" cy="820" r="28" fill="#ffd36e"/><circle cx="680" cy="880" r="34" fill="#f07ca0"/><circle cx="80" cy="930" r="28" fill="#ffd36e"/><circle cx="560" cy="250" r="90" fill="#fff3c4"/><path d="M380 330c-30-22-52-44-52-66a26 26 0 0 1 52-10 26 26 0 0 1 52 10c0 22-22 44-52 66z" fill="#e85d84" opacity=".85"/></svg>
